<svg width="373" height="374" viewBox="0 0 373 374" fill="none" xmlns="http://www.w3.org/2000/svg">
<rect width="373" height="374" rx="80.8058" fill="#10A37F"/>
<path fill-rule="evenodd" clip-rule="evenodd" d="M230 136.5H144C116.294 136.5 93.8333 158.96 93.8333 186.667V236.833H230C257.706 236.833 280.167 214.373 280.167 186.667C280.167 158.96 257.706 136.5 230 136.5ZM144 100.667C96.5035 100.667 58 139.17 58 186.667V272.667H230C277.496 272.667 316 234.163 316 186.667C316 139.17 277.496 100.667 230 100.667H144Z" fill="white"/>
<path d="M161.917 186.667C161.917 196.562 153.895 204.583 144 204.583C134.105 204.583 126.083 196.562 126.083 186.667C126.083 176.772 134.105 168.75 144 168.75C153.895 168.75 161.917 176.772 161.917 186.667Z" fill="white"/>
<path d="M247.917 186.667C247.917 196.562 239.895 204.583 230 204.583C220.105 204.583 212.083 196.562 212.083 186.667C212.083 176.772 220.105 168.75 230 168.75C239.895 168.75 247.917 176.772 247.917 186.667Z" fill="white"/>
</svg>
