<svg width="375" height="376" viewBox="0 0 375 376" fill="none" xmlns="http://www.w3.org/2000/svg">
<rect x="0.400002" y="0.699951" width="374.4" height="374.4" rx="80.8058" fill="#26262D"/>
<path d="M188.258 57.0062C251.417 60.0092 308.987 108.282 308.987 176.123C308.987 249.75 248.491 310.229 184.838 340.731V294.452C119.323 294.452 66.2125 241.357 66.2125 175.86C66.2125 110.364 122.742 57.0062 188.258 57.0062Z" fill="#7E72FF" fill-opacity="0.15"/>
<path fill-rule="evenodd" clip-rule="evenodd" d="M308.932 179.98C306.867 251.859 247.376 310.763 184.838 340.731V294.451C128.277 294.451 80.9618 254.878 69.0847 201.916C110.454 220.576 158.753 218.055 198.251 194.353C231.99 174.106 272.153 169.315 308.932 179.98Z" fill="#5B4ED9"/>
<path fill-rule="evenodd" clip-rule="evenodd" d="M305.385 207.104C291.474 266.569 239.312 314.628 184.838 340.732V294.453C121.957 294.453 70.5037 245.542 66.4672 183.7C108.117 162.316 158.466 164.609 198.25 190.576C230.447 211.591 269.561 217.1 305.385 207.104Z" fill="#7E72FF"/>
</svg>
