<svg width="163" height="163" viewBox="0 0 163 163" fill="none" xmlns="http://www.w3.org/2000/svg">
<rect width="162.37" height="162.37" rx="32.0467" fill="black"/>
<path d="M46.709 126.034V126.921C46.709 134.19 55.5063 137.831 60.6513 132.691L79.7675 113.591C82.9554 110.406 88.1232 110.405 91.3131 113.587L82.2866 104.568C79.0971 101.382 73.9259 101.382 70.7364 104.568L51.6203 123.668C50.1786 125.108 48.4502 125.859 46.709 126.034Z" fill="#FF004E"/>
<path d="M101.41 123.674L110.434 132.691C115.579 137.831 124.376 134.19 124.376 126.921V44.6995C124.376 40.1929 120.72 36.5396 116.209 36.5396H115.345V117.898C115.345 125.164 106.556 128.805 101.41 123.674Z" fill="#FF004E"/>
<path d="M91.3131 113.587L82.2866 104.568C79.0971 101.382 73.9259 101.382 70.7364 104.568L51.6203 123.668C50.1786 125.108 48.4502 125.859 46.709 126.034V44.6995C46.709 40.1929 50.3656 36.5396 54.8762 36.5396H115.345V117.898C115.345 125.164 106.556 128.805 101.41 123.674C101.407 123.672 101.405 123.67 101.403 123.668L91.3177 113.591C91.3162 113.59 91.3146 113.588 91.3131 113.587Z" fill="white"/>
<path d="M45.845 27.5166C41.3343 27.5166 37.6777 31.1699 37.6777 35.6766V117.898C37.6777 123.13 42.2357 126.483 46.7088 126.034V44.6996C46.7088 40.193 50.3654 36.5396 54.876 36.5396H115.345V35.6766C115.345 31.1699 111.688 27.5166 107.178 27.5166H45.845Z" fill="#02F3EA"/>
</svg>
