<svg width="373" height="374" viewBox="0 0 373 374" fill="none" xmlns="http://www.w3.org/2000/svg">
<rect width="373" height="374" rx="80.8058" fill="#171A1D"/>
<path d="M86.4301 99.1437C86.4301 80.586 101.474 65.5421 120.032 65.5421H255.168C273.726 65.5421 288.77 80.586 288.77 99.1437C288.77 117.701 273.726 132.745 255.168 132.745H120.032C101.474 132.745 86.4301 117.701 86.4301 99.1437Z" fill="white"/>
<path d="M86.4301 186.8C86.4301 168.242 101.474 153.198 120.032 153.198H187.6C206.158 153.198 221.202 168.242 221.202 186.8C221.202 205.358 206.158 220.401 187.6 220.401H120.032C101.474 220.401 86.4301 205.358 86.4301 186.8Z" fill="white"/>
<path d="M86.4301 274.456C86.4301 255.899 101.657 240.855 120.214 240.855C138.772 240.855 153.998 255.899 153.998 274.456C153.998 293.014 138.772 308.058 120.214 308.058C101.657 308.058 86.4301 293.014 86.4301 274.456Z" fill="white"/>
</svg>
