<svg width="679" height="560" viewBox="0 0 679 560" fill="none" xmlns="http://www.w3.org/2000/svg">
<path d="M257.98 74.6648C275.017 57.5842 275.017 29.8911 257.98 12.8105C240.944 -4.27015 213.322 -4.27015 196.286 12.8105L12.7774 196.794C-4.25912 213.874 -4.25912 241.568 12.7774 258.648L196.286 442.632C213.322 459.712 240.944 459.712 257.98 442.632C275.017 425.551 275.017 397.858 257.98 380.777L197.09 319.729C146.406 268.915 146.406 186.527 197.09 135.713L257.98 74.6648Z" fill="white"/>
<path d="M257.98 74.6648C275.017 57.5842 275.017 29.8911 257.98 12.8105C240.944 -4.27015 213.322 -4.27015 196.286 12.8105L12.7774 196.794C-4.25912 213.874 -4.25912 241.568 12.7774 258.648L196.286 442.632C213.322 459.712 240.944 459.712 257.98 442.632C275.017 425.551 275.017 397.858 257.98 380.777L197.09 319.729C146.406 268.915 146.406 186.527 197.09 135.713L257.98 74.6648Z" fill="url(#paint0_linear_55_127)"/>
<path d="M482.714 117.368C465.678 100.288 438.056 100.288 421.02 117.368C403.983 134.449 403.983 162.142 421.02 179.223L481.91 240.271C532.594 291.085 532.594 373.473 481.91 424.287L421.02 485.335C403.983 502.416 403.983 530.109 421.02 547.19C438.056 564.27 465.678 564.27 482.714 547.19L666.223 363.206C674.404 355.004 679 343.879 679 332.279C679 320.679 674.404 309.554 666.223 301.352L482.714 117.368Z" fill="white"/>
<path d="M482.714 117.368C465.678 100.288 438.056 100.288 421.02 117.368C403.983 134.449 403.983 162.142 421.02 179.223L481.91 240.271C532.594 291.085 532.594 373.473 481.91 424.287L421.02 485.335C403.983 502.416 403.983 530.109 421.02 547.19C438.056 564.27 465.678 564.27 482.714 547.19L666.223 363.206C674.404 355.004 679 343.879 679 332.279C679 320.679 674.404 309.554 666.223 301.352L482.714 117.368Z" fill="url(#paint1_linear_55_127)"/>
<defs>
<linearGradient id="paint0_linear_55_127" x1="219.759" y1="1.06914e-05" x2="468.838" y2="559.898" gradientUnits="userSpaceOnUse">
<stop stop-color="#FF6060"/>
<stop offset="0.479167" stop-color="#CA45C5"/>
<stop offset="1" stop-color="#4E27A2"/>
</linearGradient>
<linearGradient id="paint1_linear_55_127" x1="219.759" y1="1.06914e-05" x2="468.838" y2="559.898" gradientUnits="userSpaceOnUse">
<stop stop-color="#FF6060"/>
<stop offset="0.479167" stop-color="#CA45C5"/>
<stop offset="1" stop-color="#4E27A2"/>
</linearGradient>
</defs>
</svg>
